<svg xmlns="http://www.w3.org/2000/svg" viewBox="0 0 32 32" fill="#38bdf8">
  <path d="M16 0C7.164 0 0 7.163 0 16c0 7.069 4.584 13.067 10.943 15.183.8.147 1.092-.347 1.092-.77 0-.381-.014-1.652-.022-2.993-4.452.968-5.391-1.888-5.391-1.888-.728-1.849-1.776-2.34-1.776-2.34-1.452-.993.11-.973.11-.973 1.606.113 2.452 1.65 2.452 1.65 1.427 2.446 3.743 1.739 4.656 1.33.143-1.034.558-1.74 1.016-2.14-3.554-.404-7.29-1.777-7.29-7.907 0-1.747.624-3.174 1.648-4.293-.166-.404-.714-2.032.156-4.234 0 0 1.344-.43 4.401 1.64A15.353 15.353 0 0116 7.735c1.36.007 2.728.184 4.006.539 3.055-2.07 4.396-1.64 4.396-1.64.872 2.202.324 3.83.158 4.234 1.026 1.12 1.646 2.546 1.646 4.293 0 6.145-3.742 7.498-7.306 7.895.574.497 1.084 1.47 1.084 2.963 0 2.141-.02 3.864-.02 4.391 0 .426.288.924 1.1.768C27.42 29.06 32 23.066 32 16c0-8.837-7.164-16-16-16z"/>
</svg>
